<svg width="40" height="67" viewBox="0 0 40 67" fill="none" xmlns="http://www.w3.org/2000/svg">
<g clip-path="url(#clip0_1949_57)">
<path d="M25.2503 48.4998L36.1957 30.8122C36.2315 30.755 36.2614 30.6947 36.2848 30.6324C38.1749 27.5348 39.1728 23.9963 39.1728 20.3836C39.1728 9.5457 30.3992 0.728271 19.6152 0.728271C8.83122 0.728271 0.0569418 9.5457 0.0569418 20.3836C0.0569418 23.997 1.05636 27.537 2.94787 30.6368C2.96977 30.6911 2.99532 30.7439 3.02598 30.7952L13.5786 48.5438C5.38691 49.7074 0 53.0926 0 57.199C0 62.2871 8.60343 66.2718 19.586 66.2718C30.5686 66.2718 39.1721 62.2864 39.1721 57.199C39.1728 53.0736 33.5348 49.6128 25.2503 48.4998ZM4.91384 29.6456C3.16907 26.8547 2.24703 23.6521 2.24703 20.3836C2.24703 10.7591 10.0379 2.92932 19.6152 2.92932C29.1918 2.92932 36.9827 10.7591 36.9827 20.3836C36.9827 23.6536 36.0607 26.8562 34.3166 29.6456C34.2801 29.7043 34.2502 29.7652 34.2261 29.8283L22.6623 48.513C22.4886 48.7808 22.4543 48.8416 22.2419 49.1923L19.3217 53.9114L5.01167 29.8437C4.98611 29.7755 4.95327 29.7087 4.91384 29.6456ZM19.5868 64.0707C9.33496 64.0707 2.19083 60.4485 2.19083 57.199C2.19083 54.2497 7.57116 51.4705 14.808 50.6098L18.3632 56.5901C18.5596 56.9195 18.9115 57.1228 19.2933 57.1256C19.2962 57.1256 19.2998 57.1256 19.3028 57.1256C19.681 57.1256 20.0328 56.929 20.2329 56.6063L23.9706 50.5666C31.3228 51.367 36.9819 54.2166 36.9819 57.199C36.9827 60.4492 29.8386 64.0707 19.5868 64.0707Z" fill="none"/>
<path d="M26.698 20.3836C26.698 16.443 23.5077 13.2368 19.5868 13.2368C15.6657 13.2368 12.4756 16.443 12.4756 20.3836C12.4756 24.3242 15.6657 27.5304 19.5868 27.5304C23.5077 27.5304 26.698 24.3242 26.698 20.3836ZM14.6656 20.3836C14.6656 17.6565 16.8732 15.4378 19.5868 15.4378C22.3003 15.4378 24.5079 17.6565 24.5079 20.3836C24.5079 23.1107 22.301 25.3294 19.5868 25.3294C16.8725 25.3294 14.6656 23.1107 14.6656 20.3836Z" fill="none"/>
</g>
<defs>
<clipPath id="clip0_1949_57">
<rect width="40" height="67" fill="white"/>
</clipPath>
</defs>
</svg>
