<svg width="50" height="50" viewBox="0 0 50 50" fill="none" xmlns="http://www.w3.org/2000/svg">
<g clip-path="url(#clip0_1949_51)">
<path d="M38 31.6262V33.157C38 35.6946 36.1945 37.8734 33.7037 38.3372C32.543 38.5536 31.3459 38.6666 30.1226 38.6666C29.5109 38.6666 28.9059 38.6384 28.3081 38.583C19.0249 37.7229 11.6323 30.3313 10.7542 21.0396C10.6965 20.4279 10.6667 19.808 10.6667 19.181C10.6667 17.9722 10.7767 16.7892 10.987 15.6415C11.4444 13.1436 13.6247 11.3333 16.16 11.3333H17.7381C19.0113 11.3333 20.0439 12.3672 20.0439 13.6426V18.7302C20.0439 20.0058 19.0113 21.0396 17.7381 21.0396H16.9485C17.7729 27.1576 22.1993 31.5912 28.308 32.4169V31.6261C28.308 30.3509 29.3407 29.3167 30.6139 29.3167H35.6941C36.9673 29.3168 38 30.3511 38 31.6262Z" fill="none"/>
<path d="M25 50C21.6255 50 18.3513 49.3389 15.2686 48.0349C12.2914 46.7757 9.618 44.9733 7.32233 42.6777C5.02674 40.382 3.22428 37.7086 1.96505 34.7315C0.661147 31.6487 0 28.3745 0 25C0 21.6255 0.661147 18.3513 1.96505 15.2685C3.22428 12.2915 5.02674 9.618 7.32233 7.32233C9.618 5.02674 12.2914 3.22428 15.2686 1.96505C18.3513 0.661147 21.6255 0 25 0C28.3745 0 31.6487 0.661147 34.7315 1.96505C37.7086 3.22428 40.382 5.02674 42.6777 7.32233C44.9733 9.618 46.7757 12.2915 48.0349 15.2685C49.3389 18.3513 50 21.6255 50 25C50 28.3745 49.3389 31.6487 48.0349 34.7315C46.7757 37.7086 44.9733 40.382 42.6777 42.6777C40.382 44.9733 37.7086 46.7757 34.7315 48.0349C31.6487 49.3389 28.3745 50 25 50ZM25 2.01405C21.8965 2.01405 18.8863 2.62165 16.0532 3.81997C13.3161 4.97766 10.8578 6.63516 8.74647 8.74647C6.63516 10.8578 4.97766 13.3161 3.82004 16.0531C2.62172 18.8863 2.01412 21.8965 2.01412 25C2.01412 28.1036 2.62172 31.1137 3.82004 33.9469C4.97773 36.6839 6.63516 39.1423 8.74647 41.2536C10.8578 43.3649 13.3161 45.0224 16.0532 46.18C18.8863 47.3783 21.8965 47.9859 25 47.9859C28.1035 47.9859 31.1137 47.3783 33.9469 46.18C36.6839 45.0223 39.1423 43.3649 41.2536 41.2536C43.3649 39.1423 45.0224 36.6839 46.18 33.9469C47.3783 31.1137 47.986 28.1036 47.986 25C47.986 21.8965 47.3784 18.8863 46.18 16.0531C45.0223 13.3161 43.3649 10.8578 41.2536 8.74647C39.1423 6.63516 36.6839 4.97766 33.9469 3.81997C31.1137 2.62165 28.1035 2.01405 25 2.01405Z" fill="none"/>
</g>
<defs>
<clipPath id="clip0_1949_51">
<rect width="50" height="50" fill="white"/>
</clipPath>
</defs>
</svg>
